M48
; DRILL file {KiCad 7.0.10-7.0.10~ubuntu20.04.1} date jue 22 feb 2024 18:15:58
; FORMAT={-:-/ absolute / metric / decimal}
; #@! TF.CreationDate,2024-02-22T18:15:58-03:00
; #@! TF.GenerationSoftware,Kicad,Pcbnew,7.0.10-7.0.10~ubuntu20.04.1
; #@! TF.FileFunction,Plated,1,2,PTH
FMAT,2
METRIC
; #@! TA.AperFunction,Plated,PTH,ViaDrill
T1C0.300
; #@! TA.AperFunction,Plated,PTH,ViaDrill
T2C0.400
; #@! TA.AperFunction,Plated,PTH,ComponentDrill
T3C0.450
; #@! TA.AperFunction,Plated,PTH,ComponentDrill
T4C0.500
; #@! TA.AperFunction,Plated,PTH,ComponentDrill
T5C0.550
; #@! TA.AperFunction,Plated,PTH,ComponentDrill
T6C0.600
; #@! TA.AperFunction,Plated,PTH,ComponentDrill
T7C0.950
; #@! TA.AperFunction,Plated,PTH,ComponentDrill
T8C1.000
; #@! TA.AperFunction,Plated,PTH,ViaDrill
T9C3.200
%
G90
G05
T1
X113.4Y-32.8
X115.4Y-23.35
X117.45Y-83.75
X118.85Y-81.1
X119.3Y-78.55
X120.9Y-66.7
X120.939Y-69.301
X121.2Y-59.05
X122.6Y-29.3
X122.9Y-20.7
X123.3Y-39.1
X127.45Y-93.15
X135.65Y-38.25
X135.95Y-75.8
X137.075Y-72.025
X137.65Y-28.35
X138.0Y-83.95
X144.35Y-27.55
X144.35Y-66.5
X147.35Y-84.1
X147.7Y-77.85
X148.1Y-67.575
X152.35Y-45.55
X152.7Y-55.0
X154.95Y-31.1
X155.75Y-68.0
X156.35Y-34.65
X156.6Y-27.75
X162.75Y-50.5
X163.55Y-47.55
X163.8Y-32.85
X163.85Y-24.05
X175.05Y-36.15
X177.4Y-28.5
X179.25Y-34.05
X180.25Y-25.35
X182.0Y-30.6
X189.8Y-32.1
T2
X118.65Y-49.0
X121.975Y-50.125
X123.45Y-92.45
X125.15Y-55.5
X129.5Y-34.23
X130.3Y-45.7
X132.275Y-35.675
X133.5Y-43.175
X137.0Y-42.625
X138.3Y-39.8
X138.9Y-44.13
X142.4Y-53.45
X144.828Y-54.569
X144.875Y-90.7
X147.175Y-72.075
X147.8Y-52.55
X147.825Y-43.0
X148.825Y-38.95
X148.975Y-43.675
X148.975Y-52.525
X149.6Y-68.35
X150.375Y-43.625
X150.375Y-52.45
X151.325Y-92.95
X152.075Y-30.875
X152.125Y-37.325
X152.25Y-66.125
X153.55Y-38.225
X153.6Y-35.825
X158.075Y-67.349
X160.4Y-38.075
X160.45Y-59.4
X160.825Y-64.575
X161.675Y-38.05
X162.675Y-29.2
X162.825Y-27.925
X163.387Y-63.912
X164.85Y-36.275
X165.125Y-63.2
X165.375Y-26.65
X165.45Y-49.5
X166.4Y-41.1
X169.35Y-71.75
X171.025Y-30.475
X171.075Y-31.725
X172.525Y-37.65
X175.627Y-39.723
X175.825Y-42.475
X178.625Y-36.65
X180.125Y-22.825
X180.325Y-21.2
X180.325Y-71.725
X183.875Y-31.75
T6
X195.0Y-49.75
X195.0Y-51.75
X195.0Y-53.75
T7
X114.85Y-77.325
X114.85Y-79.825
X114.85Y-82.325
X114.85Y-84.825
X114.85Y-87.325
X114.85Y-89.825
X115.075Y-60.35
X115.075Y-62.85
X115.075Y-65.35
X115.075Y-67.85
X115.075Y-70.35
X117.0Y-97.05
X119.5Y-97.05
X122.0Y-97.05
X124.5Y-97.05
X132.075Y-97.2
X134.575Y-97.2
X137.075Y-97.2
X144.275Y-97.2
X146.775Y-97.2
X149.275Y-97.2
T8
X115.1Y-51.775
X115.1Y-54.275
X117.375Y-20.625
X117.925Y-30.2
X117.925Y-40.675
X129.75Y-51.725
X129.75Y-54.225
X166.925Y-44.975
X182.625Y-50.1
X194.625Y-62.125
X194.625Y-64.625
T9
X112.175Y-17.0
X112.175Y-99.5
X196.5Y-17.0
X196.5Y-99.5
T3
X194.6Y-47.6G85X195.4Y-47.6
G05
X194.6Y-55.9G85X195.4Y-55.9
G05
T4
X176.9Y-15.75G85X176.9Y-15.1
G05
X183.9Y-15.75G85X183.9Y-15.1
G05
T5
X178.05Y-18.125G85X177.75Y-18.125
G05
X183.05Y-18.125G85X182.75Y-18.125
G05
M30
